<?xml version="1.0" encoding="UTF-8"?>
<svg version="1.1" xmlns="http://www.w3.org/2000/svg" width="1146" height="387">
<path d="M0 0 C1.64470158 1.90231324 3.25503454 3.83493072 4.828125 5.796875 C6.01003418 7.26398926 6.01003418 7.26398926 7.21582031 8.76074219 C8.09898926 9.8691748 8.09898926 9.8691748 9 11 C9.08564209 10.00556885 9.17128418 9.0111377 9.25952148 7.98657227 C9.57741172 4.3092466 9.90120068 0.6324604 10.22680664 -3.04418945 C10.36709878 -4.63779764 10.50577473 -6.23154895 10.64282227 -7.82543945 C10.8396967 -10.11188371 11.04231234 -12.39775607 11.24609375 -14.68359375 C11.3065538 -15.40026718 11.36701385 -16.11694061 11.42930603 -16.85533142 C11.88612829 -21.88612829 11.88612829 -21.88612829 13 -23 C14.89698849 -23.09915795 16.79768787 -23.12799314 18.69726562 -23.12939453 C19.91522827 -23.13254669 21.13319092 -23.13569885 22.38806152 -23.13894653 C23.72745805 -23.13715675 25.06685424 -23.1351058 26.40625 -23.1328125 C27.7700604 -23.1334856 29.13387068 -23.13445567 30.49768066 -23.13571167 C33.35930521 -23.13718838 36.2208986 -23.13503497 39.08251953 -23.13037109 C42.75818614 -23.12467381 46.43377974 -23.12795296 50.10944366 -23.13394356 C52.92662104 -23.13754991 55.74378098 -23.13641025 58.56095886 -23.13381577 C59.91660063 -23.1331467 61.27224396 -23.13397421 62.62788391 -23.13629532 C64.51950044 -23.13882301 66.41112249 -23.13429014 68.30273438 -23.12939453 C69.92036682 -23.12820114 69.92036682 -23.12820114 71.57067871 -23.12698364 C74 -23 74 -23 75 -22 C75.09636367 -20.64993803 75.12371954 -19.2948713 75.12304783 -17.94137478 C75.12503888 -17.06156805 75.12702993 -16.18176131 75.12908131 -15.27529377 C75.12616847 -14.29768764 75.12325563 -13.32008151 75.12025452 -12.31285095 C75.12153615 -10.76798652 75.12153615 -10.76798652 75.12284368 -9.19191271 C75.12450157 -5.7124786 75.11897208 -2.23309184 75.11352539 1.24633789 C75.11324356 3.72921243 75.11340117 6.21208706 75.1139679 8.69496155 C75.11419622 14.05501486 75.11134478 19.4150532 75.10573006 24.77510262 C75.09761728 32.52491796 75.09500007 40.27472742 75.09374207 48.02454656 C75.09155119 60.59685273 75.08489016 73.16915242 75.07543945 85.74145508 C75.06626624 97.95727506 75.05918496 110.17309329 75.05493164 122.38891602 C75.05453756 123.51760626 75.05453756 123.51760626 75.05413551 124.66909833 C75.05283051 128.44381364 75.05156679 132.21852896 75.05032361 135.99324429 C75.0399499 167.32883423 75.02225651 198.66441614 75 230 C66.93347826 230.02312737 58.86697028 230.04091709 50.80042362 230.05181217 C47.05516963 230.05704014 43.30993824 230.06413622 39.56469727 230.07543945 C35.95318313 230.08627141 32.34169079 230.09227749 28.73016167 230.09487724 C27.34939671 230.09673094 25.968633 230.10035049 24.58787727 230.10573006 C22.66024048 230.11294447 20.73258193 230.11340809 18.80493164 230.11352539 C17.70572891 230.115746 16.60652618 230.11796661 15.47401428 230.12025452 C13 230 13 230 12 229 C11.69781089 226.55801604 11.45282769 224.13414938 11.24609375 221.68359375 C11.18092056 220.95253922 11.11574738 220.22148468 11.04859924 219.46827698 C10.8406804 217.12503459 10.63902702 214.78129993 10.4375 212.4375 C10.29793726 210.85217729 10.15796863 209.26689025 10.01757812 207.68164062 C9.67366794 203.78815932 9.33537725 199.89422522 9 196 C8.19139526 197.12583496 8.19139526 197.12583496 7.36645508 198.27441406 C6.65384521 199.26151367 5.94123535 200.24861328 5.20703125 201.265625 C4.50296143 202.24305664 3.7988916 203.22048828 3.07348633 204.22753906 C-9.18141159 220.61357707 -30.27596092 228.91069267 -50 232 C-85.85180324 236.76930667 -119.17192057 232.76360043 -149.03125 211.29296875 C-153.59471408 207.76829321 -157.83339024 203.98126235 -162 200 C-162.60070312 199.46246094 -163.20140625 198.92492187 -163.8203125 198.37109375 C-186.71455919 177.12736252 -197.6873471 142.75979961 -199.12548828 112.34619141 C-200.45654038 74.05336081 -190.08243985 37.58510274 -164 9 C-163.35675781 8.27425781 -162.71351563 7.54851562 -162.05078125 6.80078125 C-145.3558245 -11.05304452 -120.16555223 -23.07765415 -96 -26 C-95.17886719 -26.12117188 -94.35773438 -26.24234375 -93.51171875 -26.3671875 C-61.33516936 -30.18553345 -24.07198011 -22.75589422 0 0 Z M-119 56 C-133.10182335 74.09290542 -135.18245625 97.34616014 -132.72753906 119.45361328 C-130.08128139 135.4323618 -121.44305398 148.97951079 -110 160 C-109.34386719 160.67546875 -108.68773437 161.3509375 -108.01171875 162.046875 C-95.22484963 174.42303098 -76.69462311 178.66793855 -59.43652344 178.47070312 C-39.81032006 177.76086737 -23.61135992 169.97649327 -10 156 C-8.96552734 154.96166016 -8.96552734 154.96166016 -7.91015625 153.90234375 C7.17212019 137.82998352 9.63570092 117.68341476 9.3046875 96.6640625 C8.57209656 75.06776598 -1.10671431 59.22132292 -16.3984375 44.7265625 C-31.07975389 31.99625161 -49.91256405 27.77466552 -68.96289062 28.83154297 C-89.5902024 30.53730101 -105.54279905 40.74012105 -119 56 Z " fill="#5473FF" transform="translate(445,137)"/>
<path d="M0 0 C0.88558594 0.74443359 0.88558594 0.74443359 1.7890625 1.50390625 C24.64197979 22.32197474 31.05873824 59.86351502 33 89 C33.13299069 93.91445333 33.12709652 98.82710531 33.11352539 103.74291992 C33.11324269 105.19279987 33.11340287 106.64267995 33.1139679 108.09255981 C33.11425263 111.99468934 33.10840866 115.89678759 33.10139394 119.7989099 C33.09510609 123.8894826 33.09455233 127.98005615 33.09336853 132.07063293 C33.09027114 139.80157911 33.08207938 147.53251101 33.07201904 155.26345092 C33.05870848 165.72097359 33.05334512 176.17850022 33.04751682 186.63602924 C33.03813829 203.09069685 33.01820878 219.54533431 33 236 C11.55 236 -9.9 236 -32 236 C-32.04898437 226.079375 -32.09796875 216.15875 -32.1484375 205.9375 C-32.18384776 199.63019991 -32.21974323 193.32290867 -32.2578125 187.015625 C-32.31806885 177.0175992 -32.3764169 167.01958988 -32.421875 157.02148438 C-32.45500151 149.7376146 -32.49494366 142.45381812 -32.54279006 135.17002964 C-32.56785168 131.31972694 -32.5896907 127.46947156 -32.60334396 123.61911011 C-32.07728877 82.56841874 -32.07728877 82.56841874 -50.5078125 47.109375 C-62.85597613 36.65795123 -78.39558978 34.87694086 -94 36 C-108.61216503 37.72276329 -122.21589673 43.82059853 -132 55 C-148.6260885 77.31473254 -148.46059584 103.59022157 -148.50611091 130.1869123 C-148.515627 133.91982089 -148.54183848 137.65261577 -148.56611633 141.38545227 C-148.60942711 148.42194912 -148.63818971 155.45842347 -148.66143972 162.4950121 C-148.69379932 172.02626819 -148.74921259 181.55739029 -148.80318546 191.08854389 C-148.88736465 206.05898884 -148.94124403 221.02938363 -149 236 C-170.45 236 -191.9 236 -214 236 C-214 159.77 -214 83.54 -214 5 C-209.72053028 3.16594155 -205.76640876 1.50922665 -201.38769531 0.09887695 C-200.33680725 -0.24124924 -199.28591919 -0.58137543 -198.20318604 -0.93180847 C-197.08941589 -1.28817886 -195.97564575 -1.64454926 -194.828125 -2.01171875 C-193.08906891 -2.57135063 -193.08906891 -2.57135063 -191.31488037 -3.14228821 C-188.87469574 -3.9264072 -186.43394876 -4.70877802 -183.99267578 -5.48950195 C-180.24714634 -6.68841343 -176.50436344 -7.89563312 -172.76171875 -9.10351562 C-170.38818202 -9.86508587 -168.01448943 -10.62617059 -165.640625 -11.38671875 C-164.51875793 -11.74916183 -163.39689087 -12.11160492 -162.24102783 -12.48503113 C-161.20274841 -12.81570084 -160.16446899 -13.14637054 -159.09472656 -13.48706055 C-158.18096252 -13.78001511 -157.26719849 -14.07296967 -156.32574463 -14.37480164 C-154 -15 -154 -15 -151 -15 C-150.01 -4.44 -149.02 6.12 -148 17 C-146.576875 15.040625 -145.15375 13.08125 -143.6875 11.0625 C-138.86772291 4.67343739 -133.5377943 -0.33826841 -127 -5 C-126.23429688 -5.55171875 -125.46859375 -6.1034375 -124.6796875 -6.671875 C-90.09189152 -29.41774761 -31.14700008 -27.14590323 0 0 Z " fill="#5472FF" transform="translate(1089,131)"/>
<path d="M0 0 C50.16 0 100.32 0 152 0 C152 106.26 152 212.52 152 322 C129.23 322 106.46 322 83 322 C83 234.22 83 146.44 83 56 C49.67 56 16.34 56 -18 56 C-8.2617801 23.13350785 -8.2617801 23.13350785 -5.625 14.5 C-5.29628906 13.406875 -4.96757812 12.31375 -4.62890625 11.1875 C-4.31050781 10.1459375 -3.99210937 9.104375 -3.6640625 8.03125 C-3.39029785 7.12955078 -3.1165332 6.22785156 -2.83447266 5.29882812 C-2 3 -2 3 0 0 Z " fill="#5372FF" transform="translate(35,45)"/>
<path d="M0 0 C0 113.52 0 227.04 0 344 C-21.45 344 -42.9 344 -65 344 C-65 237.74 -65 131.48 -65 22 C-52.95503761 17.4831391 -40.89921764 13.03749364 -28.78662109 8.71142578 C-26.7397517 7.97910798 -24.69387086 7.24402191 -22.64892578 6.50634766 C-19.6587195 5.42782719 -16.665688 4.3575239 -13.671875 3.2890625 C-12.75839294 2.95790436 -11.84491089 2.62674622 -10.90374756 2.28555298 C-10.05475891 1.9845871 -9.20577026 1.68362122 -8.33105469 1.37353516 C-7.58877625 1.1073941 -6.8464978 0.84125305 -6.08172607 0.56704712 C-4 0 -4 0 0 0 Z " fill="#5472FF" transform="translate(633,23)"/>
<path d="M0 0 C1 1 1 1 1.12025452 3.20826721 C1.11803391 4.18311569 1.11581329 5.15796417 1.11352539 6.16235352 C1.11344986 7.26341934 1.11337433 8.36448517 1.11329651 9.49891663 C1.10813522 10.6968132 1.10297394 11.89470978 1.09765625 13.12890625 C1.09553383 14.95795753 1.09553383 14.95795753 1.09336853 16.82395935 C1.08774967 20.7368307 1.07519396 24.64964581 1.0625 28.5625 C1.05748743 31.20768147 1.0529241 33.85286383 1.04882812 36.49804688 C1.03777411 42.99871726 1.02101764 49.49935461 1 56 C0.38134064 56.05109421 -0.23731873 56.10218842 -0.87472534 56.15483093 C-3.72685461 56.3934535 -6.57824413 56.6400403 -9.4296875 56.88671875 C-10.40252686 56.96692261 -11.37536621 57.04712646 -12.37768555 57.12976074 C-25.55938625 58.28474455 -38.06351965 61.12256292 -50 67 C-50.98355469 67.47953125 -51.96710938 67.9590625 -52.98046875 68.453125 C-67.26765697 76.06802998 -78.16582698 88.35027222 -83.33984375 103.7890625 C-85.51192656 111.13240295 -87.10890498 118.24377527 -87.15821838 125.9225769 C-87.1680072 127.083564 -87.17779602 128.24455109 -87.18788147 129.4407196 C-87.19363693 130.70019913 -87.1993924 131.95967865 -87.20532227 133.25732422 C-87.21491088 134.60794874 -87.22492153 135.95857032 -87.23532104 137.30918884 C-87.26226968 140.9636568 -87.28333335 144.61813753 -87.30332303 148.27264929 C-87.3252448 152.09635062 -87.3526031 155.920013 -87.37937927 159.74368286 C-87.42922266 166.97894382 -87.47419236 174.21422648 -87.51740164 181.44952977 C-87.5760957 191.23041727 -87.64233752 201.01125349 -87.70815182 210.79209518 C-87.81159577 226.19469553 -87.90497178 241.59734011 -88 257 C-109.45 257 -130.9 257 -153 257 C-153 180.77 -153 104.54 -153 26 C-141.74414478 21.49765791 -141.74414478 21.49765791 -137.41430664 19.98535156 C-135.95843895 19.47527557 -135.95843895 19.47527557 -134.47315979 18.95489502 C-133.46236862 18.60368591 -132.45157745 18.25247681 -131.41015625 17.890625 C-129.81064369 17.33311554 -129.81064369 17.33311554 -128.17881775 16.76434326 C-125.94475483 15.98668134 -123.7102566 15.2102689 -121.4753418 14.43505859 C-118.04621897 13.24434666 -114.61976797 12.04615295 -111.19335938 10.84765625 C-109.0157837 10.09068914 -106.83805474 9.33416281 -104.66015625 8.578125 C-103.63519547 8.21881897 -102.61023468 7.85951294 -101.55421448 7.48931885 C-100.60570114 7.16187683 -99.65718781 6.83443481 -98.67993164 6.49707031 C-97.84627579 6.20713196 -97.01261993 5.9171936 -96.15370178 5.61846924 C-94 5 -94 5 -91 5 C-90.00567715 7.98296854 -89.71277619 10.41901995 -89.46484375 13.54296875 C-89.33432617 15.15268555 -89.33432617 15.15268555 -89.20117188 16.79492188 C-89.0706543 18.47424805 -89.0706543 18.47424805 -88.9375 20.1875 C-88.80118164 21.88422852 -88.80118164 21.88422852 -88.66210938 23.61523438 C-88.43806386 26.40990736 -88.21749856 29.20481111 -88 32 C-87.34 32 -86.68 32 -86 32 C-84.64078101 30.54220029 -83.33803123 29.0315601 -82.0625 27.5 C-63.79960302 6.88153828 -38.41688064 2.02445735 -12.1953125 0.26171875 C-8.11948532 0.03479432 -4.08062291 -0.15010466 0 0 Z " fill="#5472FF" transform="translate(834,110)"/>
<path d="M0 0 C31.35 0 62.7 0 95 0 C91.25548835 18.72255827 84.67199209 36.76859684 79 55 C47.65 55 16.3 55 -16 55 C-13.75 44.875 -13.75 44.875 -12.48779297 40.75561523 C-12.20379639 39.8227771 -11.9197998 38.88993896 -11.62719727 37.92883301 C-11.33514404 36.98165405 -11.04309082 36.0344751 -10.7421875 35.05859375 C-10.46898682 34.16338013 -10.19578613 33.2681665 -9.91430664 32.3458252 C-8.90493587 29.04190784 -7.88962958 25.73980617 -6.875 22.4375 C-4.60625 15.033125 -2.3375 7.62875 0 0 Z " fill="#C3C3C3" transform="translate(210,46)"/>
<path d="M0 0 C0.66 0.33 1.32 0.66 2 1 C-4.93 7.93 -11.86 14.86 -19 22 C-19.66 21.67 -20.32 21.34 -21 21 C-14.32497556 13.59083582 -7.66925098 6.41040928 0 0 Z " fill="#7C94FF" transform="translate(294,134)"/>
<path d="M0 0 C0.66 0.33 1.32 0.66 2 1 C-0.59195068 3.67877946 -3.20047108 6.34080633 -5.8125 9 C-6.55048828 9.763125 -7.28847656 10.52625 -8.04882812 11.3125 C-8.76103516 12.034375 -9.47324219 12.75625 -10.20703125 13.5 C-11.18893433 14.50546875 -11.18893433 14.50546875 -12.19067383 15.53125 C-14 17 -14 17 -17 17 C-16.505 15.515 -16.505 15.515 -16 14 C-15.34 14 -14.68 14 -14 14 C-12.50993941 12.46602799 -11.08175001 10.87154791 -9.6875 9.25 C-6.67782783 5.75489684 -3.68007694 2.7877397 0 0 Z " fill="#889DFF" transform="translate(762,128)"/>
<path d="M0 0 C0.66 0.33 1.32 0.66 2 1 C-2.29 5.29 -6.58 9.58 -11 14 C-11.66 13.67 -12.32 13.34 -13 13 C-4.738041 3.40546697 -4.738041 3.40546697 0 0 Z " fill="#8197FF" transform="translate(959,128)"/>
</svg>
